<svg width="582" height="751" viewBox="0 0 582 751" fill="none" xmlns="http://www.w3.org/2000/svg">
<path d="M289.733 2.53333C276.933 6.66666 266 17.2 261.2 29.8667C257.467 39.7333 258.133 55.8667 262.533 64.4C266.933 72.9333 274.933 81.0667 282.533 84.6667L289.333 87.7333V112.4V137.067L268.133 158.533C251.333 175.6 246.667 181.067 245.467 185.333C244.533 188.8 244 209.6 244 245.467V300.133L236 314.8C231.6 322.8 224.667 336.8 220.533 346C216.4 355.2 212.533 363.6 211.867 364.667C211.2 365.733 210.667 324.267 210.667 269.2V171.733L216 169.333C222.267 166.533 230.667 157.867 234.533 150.133C238.133 143.333 239.867 130.533 238.533 122.133C235.6 103.467 218.933 87.3333 200.267 85.0667C192.533 84.1333 179.333 87.3333 172.267 91.8667C154.8 102.8 147.2 126.533 154.8 146.667C158.133 155.6 168.667 166.8 177.067 170.533L182.667 173.067V294.533V416L171.333 404.667L160 393.333L159.6 350.667C159.333 319.6 158.667 306.4 157.333 302C155.867 297.2 152.8 293.333 141.6 282.4L127.6 268.8L133.733 262.8C152.267 244.8 153.6 215.6 136.667 196.933C133.867 193.733 128 189.6 122.933 187.2C85.8666 169.333 48.1333 208.667 64.5333 247.867C67.3333 254.667 77.7333 265.2 84.2666 268C88.1333 269.6 96.9333 277.333 111.067 291.2L132 312V340.933V369.867L119.2 361.733C93.7333 345.733 61.0666 331.867 31.0666 324.267C17.4666 320.8 14.2666 320.4 13.3333 321.867C9.86663 327.6 3.06663 368.933 1.06663 396.933C-5.20004 484.133 24 570.4 81.2 634.4L89.3333 643.467V618C89.3333 594.4 89.4666 592.533 92 590C94.5333 587.467 96.4 587.333 124.933 587.333C148.8 587.467 156 587.867 158.667 589.333C160.533 590.4 162.4 591.2 163.067 591.333C163.6 591.333 164 568.667 164 541.067C164 493.733 164.133 490.533 166.667 485.467C168.4 481.733 212 437.467 302.267 347.333C375.467 274.4 439.2 210.933 444 206.4L452.667 198.133L452 336.4C451.2 488.667 451.467 482.933 442.533 510.4C426.933 558.4 390.133 602.667 341.333 632.133C330.133 638.933 330 639.067 328.4 646.133C324.933 661.333 321.333 690.4 319.867 714.4C319.067 728.267 318.8 739.867 319.2 740.267C320.667 741.733 369.733 713.067 399.333 693.2C450.533 659.067 489.467 621.333 517.733 578.4C582.8 479.467 599.067 349.6 561.733 226C545.867 172.933 523.733 128.4 489.067 78.8C487.6 76.6667 450.8 97.0667 424.667 114.4C390.267 137.333 364.4 158.8 332.533 190.533C310 213.2 285.867 240.533 277.6 252.933L274 258.533L273.6 225.867L273.333 193.2L293.467 173.2C304.533 162.267 314.4 151.733 315.467 149.733C316.933 146.933 317.333 139.6 317.333 117.067V88L324.133 84C332.267 79.2 337.467 73.6 342.267 64.2667C345.6 58.1333 346 55.8667 346 44.6667C346 34 345.467 31.0667 342.8 26C338.533 17.7333 330 9.06666 322 5.06666C313.867 0.799994 298.533 -0.400006 289.733 2.53333ZM310.667 30.6667C315.6 33.2 318.667 38.9333 318.667 45.4667C318.667 49.3333 317.6 51.3333 313.467 55.4667C308.933 60.1333 307.6 60.6667 301.733 60.6667C296.267 60.6667 294.533 60 291.467 56.9333C286.533 51.6 284.667 44.5333 287.2 39.7333C292 30.4 302.4 26.4 310.667 30.6667ZM205.733 116.667C209.867 120 212.533 127.333 211.333 132.667C210.4 136.8 203.467 143.867 198.667 145.333C193.733 146.933 187.067 144.8 183.467 140.667C179.2 135.6 178.267 132.133 179.2 126.8C181.2 116.133 197.333 110 205.733 116.667ZM112.133 212C120.667 216.533 124 229.067 118.667 237.6C112.933 247.067 101.733 249.467 94.6666 242.667C85.0666 233.467 86.5333 219.467 97.7333 212.667C102.933 209.467 106.8 209.333 112.133 212Z" fill="#076840"/>
<path d="M409.2 309.6C353.867 344 316 396 301.067 458C294.4 486 294.4 486.133 293.867 589.333L293.467 686.667L296.8 664.667C308 589.6 323.867 540.8 354.133 488C365.467 468.4 376 451.467 376 452.8C376 453.2 371.467 464.933 366 478.667C353.467 509.867 342.8 541.6 337.6 563.333C332.933 582.4 329.867 600.4 331.067 601.6C332.533 602.933 349.467 592 360.267 582.8C389.467 557.867 408.933 525.6 417.067 488.667L420.4 473.333L420.133 388.667C419.867 342.133 419.6 303.867 419.467 303.733C419.333 303.467 414.667 306.133 409.2 309.6Z" fill="#076840"/>
<path d="M198.667 533.867L195.333 534.8L194.933 625.733L194.667 716.533L197.6 718.533C199.333 719.6 214.133 727.2 230.667 735.333L260.666 750.133L261.066 643.2C261.2 584.267 260.933 535.733 260.4 535.2C258.933 534 202.8 532.667 198.667 533.867Z" fill="#076840"/>
<path d="M119.333 623.6C118.933 625.333 118.8 636.8 118.933 649.333L119.333 672L134 683.067C147.467 693.067 161.067 702 163.2 702C163.6 702 164 683.733 164 661.333V620.667H142C120.4 620.667 120 620.667 119.333 623.6Z" fill="#076840"/>
</svg>
